<svg xmlns="http://www.w3.org/2000/svg" version="1.1" viewBox="1.3330435752868652 1.3198809623718262 595.39697265625 445.26025390625" width="25">
<path fill="#696cff" d="&#10;  M 16.18 381.60&#10;  Q 20.97 380.76 16.40 379.09&#10;  C 10.86 377.06 5.94 374.89 2.28 370.16&#10;  A 3.42 3.41 26.0 0 1 1.55 368.05&#10;  Q 1.44 342.27 1.60 318.43&#10;  C 1.64 310.83 9.33 309.40 14.42 306.24&#10;  C 18.53 303.68 23.70 302.42 28.72 301.36&#10;  C 31.16 300.85 32.67 298.99 32.72 296.53&#10;  A 1.18 1.17 7.8 0 0 31.83 295.37&#10;  C 27.42 294.27 21.74 291.24 19.77 286.91&#10;  Q 18.32 283.70 18.35 280.25&#10;  Q 18.49 265.18 18.37 249.50&#10;  C 18.33 243.33 21.46 239.00 27.56 237.42&#10;  Q 31.79 236.32 35.50 236.48&#10;  C 38.32 236.60 41.32 234.67 41.79 231.69&#10;  Q 42.68 226.02 50.58 224.17&#10;  A 1.04 1.02 83.7 0 0 51.38 223.16&#10;  L 51.07 189.89&#10;  Q 51.06 188.59 52.36 188.62&#10;  L 67.69 189.06&#10;  A 1.18 1.18 0.0 0 0 68.86 187.59&#10;  Q 68.57 186.50 68.57 185.56&#10;  Q 68.51 175.73 68.59 165.73&#10;  Q 68.61 163.74 68.86 161.68&#10;  Q 68.93 161.15 69.45 161.03&#10;  Q 70.95 160.70 72.41 160.70&#10;  Q 156.84 160.67 240.74 160.67&#10;  A 0.98 0.98 0.0 0 0 241.72 159.69&#10;  L 241.72 133.48&#10;  A 1.00 0.99 -90.0 0 0 240.73 132.48&#10;  L 60.61 132.46&#10;  A 1.21 1.21 0.0 0 0 59.40 133.68&#10;  C 59.48 139.99 59.67 146.37 59.15 152.64&#10;  C 58.88 155.90 59.13 159.12 58.80 162.44&#10;  Q 57.82 172.25 58.11 181.93&#10;  Q 58.16 183.67 56.42 183.70&#10;  L 54.96 183.73&#10;  Q 53.44 183.75 53.44 182.23&#10;  Q 53.48 173.09 52.87 164.54&#10;  C 52.75 162.92 51.50 162.20 51.36 160.58&#10;  Q 50.05 145.86 50.67 130.60&#10;  Q 50.75 128.55 52.66 128.00&#10;  C 57.56 126.57 62.55 127.07 67.34 125.32&#10;  Q 70.67 124.11 73.98 122.93&#10;  Q 79.93 120.80 89.09 117.56&#10;  Q 96.38 114.98 96.43 106.93&#10;  Q 96.58 85.23 96.41 61.50&#10;  Q 96.36 55.03 97.66 50.00&#10;  C 99.41 43.16 101.41 36.10 105.54 30.15&#10;  C 109.12 24.98 111.23 19.26 116.91 15.83&#10;  C 121.99 12.77 126.63 8.96 132.12 6.59&#10;  Q 136.28 4.78 140.24 3.36&#10;  C 144.73 1.74 150.80 1.38 155.76 1.39&#10;  Q 346.62 1.76 537.31 1.32&#10;  Q 542.65 1.31 548.41 2.14&#10;  Q 553.07 2.81 556.73 4.19&#10;  Q 573.87 10.64 585.67 25.31&#10;  C 590.70 31.56 593.59 39.19 595.48 46.97&#10;  C 596.65 51.76 596.48 57.18 596.49 62.24&#10;  Q 596.73 175.87 596.73 289.55&#10;  Q 596.74 303.94 595.47 309.01&#10;  Q 592.12 322.38 583.50 332.31&#10;  C 581.71 334.37 579.01 334.99 577.02 336.90&#10;  Q 572.28 341.45 561.50 346.50&#10;  Q 558.90 347.72 556.16 347.72&#10;  Q 462.90 347.67 367.98 347.70&#10;  A 0.57 0.57 0.0 0 0 367.41 348.27&#10;  L 367.43 374.95&#10;  A 0.61 0.61 0.0 0 0 368.01 375.56&#10;  Q 381.47 376.24 392.74 376.54&#10;  C 398.26 376.69 405.33 377.68 411.74 377.62&#10;  C 413.24 377.61 414.70 378.14 416.22 378.25&#10;  Q 430.86 379.29 446.10 381.15&#10;  Q 448.27 381.41 450.41 381.55&#10;  Q 452.66 381.70 454.81 382.00&#10;  Q 464.82 383.37 475.56 384.73&#10;  Q 493.68 387.02 509.97 391.94&#10;  Q 516.95 394.05 522.95 397.21&#10;  C 524.77 398.17 526.49 399.66 526.58 401.89&#10;  C 526.93 410.03 522.25 413.29 515.10 415.07&#10;  Q 501.91 418.36 489.27 421.26&#10;  Q 484.34 422.40 478.73 423.18&#10;  Q 473.45 423.91 468.23 424.90&#10;  Q 460.64 426.33 449.26 427.55&#10;  Q 436.07 428.96 422.89 430.37&#10;  Q 415.98 431.11 407.08 431.63&#10;  Q 399.15 432.10 391.24 432.76&#10;  Q 385.05 433.27 379.75 433.49&#10;  C 374.81 433.69 369.95 434.25 365.01 434.26&#10;  Q 338.42 434.32 315.85 434.29&#10;  Q 310.09 434.29 303.93 433.76&#10;  C 295.90 433.07 287.72 433.67 279.71 433.50&#10;  A 1.01 1.01 0.0 0 0 278.68 434.50&#10;  L 278.51 445.79&#10;  A 0.76 0.76 0.0 0 1 277.74 446.54&#10;  Q 270.28 446.44 262.53 446.54&#10;  Q 260.25 446.56 258.01 446.31&#10;  C 255.97 446.07 253.86 446.59 251.80 446.58&#10;  Q 133.80 446.26 16.47 446.42&#10;  C 11.09 446.43 5.69 442.97 2.83 438.96&#10;  C 1.38 436.93 1.44 433.51 1.42 430.64&#10;  Q 1.22 406.99 1.48 382.37&#10;  Q 1.48 381.92 1.92 381.90&#10;  Q 7.46 381.55 12.23 382.14&#10;  C 13.63 382.32 14.81 381.84 16.18 381.60&#10;  Z&#10;  M 303.35 152.06&#10;  Q 303.12 153.29 302.99 155.70&#10;  Q 302.48 164.85 303.00 174.74&#10;  Q 303.44 183.27 303.35 198.59&#10;  C 303.33 202.47 301.92 205.09 298.59 207.27&#10;  A 0.90 0.89 50.9 0 0 298.45 208.65&#10;  L 299.24 209.42&#10;  Q 299.68 209.85 299.57 210.46&#10;  Q 299.23 212.26 299.68 214.07&#10;  Q 301.04 219.53 301.35 224.61&#10;  Q 301.55 227.80 303.89 230.54&#10;  Q 304.18 230.88 304.47 230.53&#10;  Q 307.68 226.71 311.81 223.92&#10;  Q 315.58 221.38 318.47 217.87&#10;  Q 318.77 217.51 319.22 217.36&#10;  C 321.59 216.58 327.03 214.42 325.83 211.10&#10;  Q 322.65 202.29 322.00 194.78&#10;  Q 320.69 179.79 324.08 165.99&#10;  Q 325.49 160.22 330.97 150.57&#10;  C 332.49 147.90 335.16 145.92 337.08 143.42&#10;  C 339.33 140.50 343.90 138.73 347.13 137.17&#10;  Q 350.84 135.37 356.97 135.63&#10;  C 364.21 135.94 371.15 138.52 377.18 142.79&#10;  Q 386.08 149.10 391.84 155.68&#10;  A 1.88 1.88 0.0 0 0 394.87 155.39&#10;  C 397.26 151.34 398.52 145.76 404.67 146.90&#10;  Q 405.18 146.99 405.58 147.32&#10;  C 407.90 149.24 410.34 150.70 413.47 150.53&#10;  C 419.27 150.23 424.84 152.18 429.45 155.83&#10;  C 431.41 157.38 431.79 159.85 433.79 161.63&#10;  Q 437.66 165.08 439.64 170.31&#10;  C 441.98 176.47 444.25 183.16 444.94 189.82&#10;  Q 446.29 202.78 444.40 213.40&#10;  Q 443.48 218.57 440.26 230.28&#10;  C 438.80 235.60 437.82 240.98 436.25 246.19&#10;  Q 434.33 252.52 433.29 258.00&#10;  C 432.16 264.01 431.24 269.90 429.92 275.77&#10;  Q 429.00 279.81 428.63 283.96&#10;  C 428.51 285.40 427.88 286.61 427.05 287.77&#10;  A 0.61 0.60 18.0 0 0 427.54 288.73&#10;  Q 481.18 288.57 535.71 288.73&#10;  Q 542.85 288.75 547.49 287.49&#10;  C 558.53 284.48 566.53 275.80 571.81 265.51&#10;  Q 573.17 262.85 573.72 259.79&#10;  C 574.73 254.12 575.39 248.57 575.39 242.77&#10;  Q 575.44 151.04 575.29 61.57&#10;  C 575.28 58.18 574.83 54.84 574.45 51.48&#10;  C 573.86 46.21 571.05 42.30 567.88 38.08&#10;  Q 565.73 35.22 563.02 33.10&#10;  C 560.52 31.13 558.29 28.87 555.51 27.26&#10;  C 550.56 24.39 545.24 22.56 539.34 22.55&#10;  Q 346.83 22.25 156.04 22.74&#10;  Q 149.03 22.76 143.21 25.30&#10;  Q 138.38 27.41 133.82 30.34&#10;  C 126.05 35.34 121.88 45.28 119.85 53.59&#10;  Q 118.36 59.66 118.54 70.28&#10;  Q 118.84 87.98 118.66 105.73&#10;  A 0.46 0.46 0.0 0 0 119.11 106.19&#10;  Q 138.12 106.41 157.66 106.25&#10;  C 160.41 106.22 163.14 105.67 165.89 105.71&#10;  C 180.44 105.96 192.24 106.27 204.69 104.52&#10;  Q 210.56 103.69 216.36 103.56&#10;  Q 223.31 103.41 230.31 102.94&#10;  Q 237.90 102.42 244.70 102.41&#10;  Q 265.21 102.40 284.82 102.53&#10;  A 0.41 0.40 90.0 0 1 285.22 102.94&#10;  Q 285.29 122.43 285.30 141.11&#10;  Q 285.31 150.05 278.85 155.12&#10;  C 276.14 157.23 273.25 159.35 270.23 160.97&#10;  Q 266.93 162.76 263.60 164.97&#10;  A 2.85 2.83 73.4 0 0 262.33 167.34&#10;  L 262.33 182.62&#10;  A 0.88 0.87 2.9 0 0 263.12 183.49&#10;  C 265.34 183.72 267.47 183.60 269.33 182.13&#10;  Q 275.36 177.37 280.91 173.44&#10;  C 283.70 171.47 285.96 168.84 288.14 166.15&#10;  C 291.68 161.79 297.19 160.04 300.95 156.08&#10;  Q 302.42 154.54 302.33 151.86&#10;  Q 302.32 151.67 302.52 151.65&#10;  L 302.96 151.62&#10;  Q 303.44 151.58 303.35 152.06&#10;  Z&#10;  M 237.56 112.33&#10;  L 237.62 117.99&#10;  Q 237.63 119.24 238.88 119.31&#10;  Q 239.14 119.32 239.40 119.13&#10;  Q 240.51 118.35 240.50 117.00&#10;  L 240.48 113.31&#10;  A 1.78 1.78 0.0 0 1 242.25 111.53&#10;  L 279.87 111.37&#10;  A 1.76 1.76 0.0 0 0 281.63 109.63&#10;  L 281.65 107.64&#10;  Q 281.67 106.10 280.13 106.12&#10;  Q 257.62 106.30 234.24 106.50&#10;  C 232.60 106.51 231.06 107.10 229.44 106.98&#10;  Q 227.44 106.85 225.59 107.07&#10;  Q 218.49 107.94 211.38 108.50&#10;  C 204.69 109.03 198.41 110.00 191.96 110.76&#10;  Q 189.38 111.06 186.85 111.79&#10;  C 183.78 112.67 180.92 112.09 177.79 112.88&#10;  Q 175.86 113.36 173.87 113.88&#10;  C 171.52 114.48 169.48 114.03 167.18 114.86&#10;  Q 166.55 115.09 167.17 115.34&#10;  C 169.16 116.13 172.03 115.33 174.02 114.81&#10;  C 176.26 114.22 178.33 114.82 180.58 114.51&#10;  C 188.82 113.39 197.62 113.58 205.25 112.80&#10;  Q 211.48 112.16 217.72 112.52&#10;  Q 221.87 112.75 225.53 112.14&#10;  Q 230.66 111.28 236.87 111.61&#10;  Q 237.56 111.64 237.56 112.33&#10;  Z&#10;  M 221.02 117.93&#10;  Q 221.50 116.30 221.11 114.64&#10;  Q 221.08 114.50 221.06 114.65&#10;  Q 220.70 117.28 220.17 119.91&#10;  Q 220.15 120.02 220.21 120.11&#10;  Q 220.30 120.24 220.44 120.30&#10;  Q 220.64 120.40 220.71 120.19&#10;  Q 220.91 119.57 220.90 118.89&#10;  A 3.37 3.31 52.6 0 1 221.02 117.93&#10;  Z&#10;  M 250.78 277.66&#10;  Q 251.46 277.51 251.50 276.81&#10;  Q 252.13 266.51 251.91 254.02&#10;  C 251.86 250.86 253.89 249.17 251.81 245.83&#10;  Q 251.53 245.39 250.99 245.43&#10;  A 0.84 0.84 0.0 0 0 250.23 246.24&#10;  L 249.25 276.81&#10;  Q 249.25 276.94 249.33 277.04&#10;  L 249.52 277.30&#10;  Q 249.81 277.70 249.40 277.98&#10;  Q 247.90 278.99 247.91 280.48&#10;  A 0.77 0.76 -82.6 0 0 248.47 281.22&#10;  Q 252.43 282.29 256.33 281.46&#10;  Q 259.36 280.81 257.26 283.09&#10;  C 254.13 286.48 252.66 290.59 249.57 293.89&#10;  Q 249.13 294.37 249.28 294.99&#10;  A 0.72 0.72 0.0 0 0 249.97 295.54&#10;  L 266.46 295.62&#10;  A 1.03 1.03 0.0 0 0 267.50 294.59&#10;  Q 267.51 289.58 267.52 284.11&#10;  C 267.52 281.01 271.08 280.95 273.25 280.80&#10;  A 1.10 1.10 0.0 0 1 274.37 281.55&#10;  Q 275.35 284.56 277.31 286.74&#10;  Q 277.72 287.19 278.32 287.27&#10;  C 281.12 287.64 283.42 288.49 286.40 288.49&#10;  Q 351.64 288.53 416.59 288.72&#10;  Q 419.00 288.73 421.28 288.38&#10;  A 0.78 0.78 0.0 0 0 421.64 286.99&#10;  Q 418.88 284.85 416.66 282.28&#10;  C 412.02 276.89 405.51 275.69 400.21 271.41&#10;  Q 391.73 264.56 383.94 259.29&#10;  Q 382.83 258.53 381.47 258.56&#10;  Q 373.54 258.69 365.27 257.28&#10;  C 364.55 257.16 363.93 257.41 363.28 257.67&#10;  Q 362.78 257.87 362.30 257.61&#10;  Q 359.39 256.05 357.95 255.59&#10;  Q 351.01 253.36 344.22 251.12&#10;  C 340.87 250.02 337.39 249.65 334.11 248.31&#10;  Q 332.35 247.59 331.25 249.14&#10;  Q 329.59 251.45 330.48 253.89&#10;  Q 330.84 254.88 330.03 254.21&#10;  L 328.40 252.84&#10;  A 1.71 1.70 -20.6 0 0 327.55 252.46&#10;  Q 325.84 252.18 323.68 252.80&#10;  Q 317.32 254.64 314.38 260.30&#10;  Q 313.94 261.14 313.86 260.20&#10;  Q 313.37 254.86 313.48 248.87&#10;  C 313.54 245.58 314.91 242.73 316.32 239.84&#10;  Q 319.45 233.44 325.95 230.81&#10;  Q 330.68 228.89 333.58 228.88&#10;  Q 338.11 228.87 344.35 230.45&#10;  Q 348.99 231.63 353.49 234.13&#10;  Q 358.42 236.86 364.19 239.26&#10;  A 1.18 1.17 -77.7 0 0 365.81 238.21&#10;  C 365.89 235.91 366.89 234.06 367.20 231.80&#10;  Q 368.05 225.48 368.86 219.34&#10;  Q 369.55 214.11 371.02 207.67&#10;  Q 372.89 199.48 374.92 191.43&#10;  Q 377.43 181.44 383.64 167.19&#10;  C 384.66 164.86 386.46 163.06 388.39 161.43&#10;  A 2.45 2.45 0.0 0 0 388.93 158.32&#10;  Q 386.19 153.62 382.07 150.81&#10;  Q 379.62 149.13 377.54 147.13&#10;  C 373.65 143.39 367.47 140.76 362.40 139.47&#10;  Q 357.60 138.24 350.38 139.78&#10;  C 342.33 141.50 335.92 147.62 331.98 154.65&#10;  Q 324.97 167.15 324.61 180.88&#10;  C 324.45 186.96 323.97 193.70 325.44 199.65&#10;  Q 327.04 206.13 328.85 212.14&#10;  A 2.44 2.44 0.0 0 1 327.47 215.10&#10;  Q 321.99 217.43 318.75 220.58&#10;  C 316.33 222.94 313.20 223.84 311.08 226.69&#10;  Q 308.95 229.56 306.40 231.80&#10;  C 305.25 232.81 304.74 233.95 304.24 235.34&#10;  Q 303.67 236.90 303.21 235.31&#10;  C 302.69 233.54 302.55 231.74 301.46 230.18&#10;  Q 300.50 228.78 300.30 227.16&#10;  Q 299.53 220.92 298.03 213.88&#10;  C 297.69 212.29 297.90 210.77 297.88 209.19&#10;  A 0.66 0.66 0.0 0 0 296.95 208.60&#10;  Q 293.28 210.23 289.65 212.26&#10;  C 287.33 213.56 286.50 217.02 286.94 219.37&#10;  C 287.55 222.63 287.42 226.11 287.74 229.49&#10;  C 287.92 231.39 288.96 233.18 288.40 235.06&#10;  C 287.11 239.41 285.32 243.86 282.43 247.47&#10;  C 279.85 250.69 277.90 254.35 275.02 257.25&#10;  Q 269.39 262.92 263.14 269.04&#10;  C 261.12 271.02 258.35 271.80 255.58 272.01&#10;  A 2.11 2.10 -85.5 0 0 253.68 273.64&#10;  Q 253.15 275.91 253.54 278.26&#10;  Q 253.66 279.02 253.11 279.56&#10;  A 0.65 0.64 44.0 0 1 252.21 279.57&#10;  L 250.66 278.09&#10;  Q 250.31 277.76 250.78 277.66&#10;  Z&#10;  M 432.19 192.44&#10;  L 434.94 192.22&#10;  Q 436.80 192.07 436.59 190.22&#10;  C 436.07 185.76 435.79 181.17 434.20 176.93&#10;  Q 432.63 172.75 431.17 168.41&#10;  Q 429.93 164.72 426.50 161.57&#10;  C 423.90 159.19 420.24 157.92 416.97 156.85&#10;  C 411.06 154.93 405.88 158.39 400.44 160.77&#10;  Q 397.70 161.98 395.58 164.10&#10;  C 388.63 171.05 384.08 180.44 381.62 190.03&#10;  Q 380.28 195.28 378.76 200.40&#10;  C 377.21 205.66 377.34 211.75 374.74 216.32&#10;  Q 373.31 218.85 372.75 221.04&#10;  Q 370.66 229.14 368.95 237.55&#10;  Q 368.68 238.85 370.01 238.90&#10;  Q 381.34 239.34 394.31 242.84&#10;  Q 395.99 243.30 397.37 244.20&#10;  Q 404.16 248.65 412.02 253.07&#10;  Q 413.68 254.00 414.91 255.33&#10;  A 1.08 1.08 0.0 0 0 416.76 254.84&#10;  Q 418.37 247.95 420.58 241.73&#10;  C 421.44 239.31 421.48 236.29 422.16 234.23&#10;  Q 423.69 229.63 424.72 225.48&#10;  C 425.75 221.33 427.64 217.78 428.86 213.87&#10;  Q 431.07 206.80 432.26 196.81&#10;  C 432.42 195.43 432.17 194.45 431.71 193.19&#10;  A 0.56 0.56 0.0 0 1 432.19 192.44&#10;  Z&#10;  M 266.18 194.45&#10;  C 199.72 194.63 132.53 194.24 66.76 194.25&#10;  Q 64.33 194.26 61.39 194.00&#10;  A 1.02 1.01 2.1 0 0 60.29 195.02&#10;  Q 60.43 206.65 60.21 218.50&#10;  Q 60.17 220.21 59.94 222.03&#10;  A 1.30 1.30 0.0 0 0 61.23 223.50&#10;  Q 161.80 223.50 262.35 223.52&#10;  C 265.64 223.52 267.75 220.64 267.70 217.43&#10;  Q 267.51 206.86 267.53 195.79&#10;  A 1.34 1.34 0.0 0 0 266.18 194.45&#10;  Z&#10;  M 57.7582 221.5930&#10;  A 1.19 0.77 -20.0 0 0 56.3766 221.2764&#10;  A 1.19 0.77 -20.0 0 0 55.5218 222.4070&#10;  A 1.19 0.77 -20.0 0 0 56.9034 222.7236&#10;  A 1.19 0.77 -20.0 0 0 57.7582 221.5930&#10;  Z&#10;  M 254.28 248.99&#10;  L 254.05 249.35&#10;  Q 253.53 250.12 254.46 250.20&#10;  Q 254.89 250.23 255.27 249.99&#10;  Q 255.93 249.58 256.12 248.85&#10;  Q 256.46 247.56 257.36 247.34&#10;  Q 263.71 245.82 269.91 247.35&#10;  A 2.32 2.31 29.3 0 0 272.10 246.74&#10;  Q 274.77 244.07 277.46 241.08&#10;  C 279.73 238.56 280.35 235.47 280.68 232.29&#10;  A 0.64 0.63 -86.2 0 0 280.07 231.59&#10;  Q 275.90 231.43 272.08 232.15&#10;  Q 268.99 232.74 265.93 235.18&#10;  Q 262.05 238.27 258.05 241.43&#10;  C 256.65 242.53 255.06 243.31 253.84 244.54&#10;  Q 253.40 244.98 253.48 245.61&#10;  Q 253.64 246.77 254.30 247.83&#10;  Q 254.67 248.41 254.28 248.99&#10;  Z&#10;  M 247.42 280.39&#10;  Q 246.70 279.26 246.80 278.07&#10;  C 247.13 274.25 247.11 270.43 247.55 266.63&#10;  C 248.11 261.85 247.57 256.90 248.17 252.08&#10;  Q 248.57 248.90 248.32 245.31&#10;  Q 248.21 243.74 246.57 244.19&#10;  Q 245.66 244.44 244.68 244.44&#10;  Q 135.52 244.48 28.20 244.44&#10;  A 2.46 2.45 0.0 0 0 25.74 246.89&#10;  L 25.66 278.73&#10;  Q 25.66 282.43 29.36 282.43&#10;  Q 138.75 282.58 241.31 282.26&#10;  Q 244.76 282.25 247.20 281.14&#10;  A 0.52 0.52 0.0 0 0 247.42 280.39&#10;  Z&#10;  M 10.58 345.50&#10;  C 10.74 349.58 12.12 353.74 14.24 357.28&#10;  Q 15.52 359.42 18.18 359.41&#10;  Q 75.50 359.20 137.82 359.29&#10;  C 142.86 359.30 147.84 358.74 152.84 358.74&#10;  Q 199.48 358.77 242.11 358.47&#10;  Q 242.58 358.46 242.59 358.00&#10;  L 243.34 325.47&#10;  A 1.05 1.05 0.0 0 0 242.29 324.40&#10;  Q 135.73 324.69 31.29 324.22&#10;  C 27.47 324.20 23.99 323.32 20.13 324.15&#10;  C 17.86 324.64 15.61 324.26 13.33 324.38&#10;  Q 12.77 324.40 12.45 324.86&#10;  Q 10.60 327.42 10.56 328.78&#10;  Q 10.27 337.24 10.58 345.50&#10;  Z&#10;  M 295.22 350.82&#10;  A 1.78 1.78 0.0 0 1 297.17 351.79&#10;  C 300.69 359.01 303.77 367.06 307.72 374.28&#10;  A 2.30 2.29 -14.2 0 0 309.74 375.48&#10;  L 319.51 375.49&#10;  A 1.01 1.00 0.0 0 0 320.52 374.49&#10;  L 320.52 347.97&#10;  A 0.71 0.71 0.0 0 0 319.80 347.26&#10;  Q 309.36 347.43 298.99 347.27&#10;  Q 296.11 347.23 295.11 344.74&#10;  A 1.08 1.08 0.0 0 0 293.25 344.48&#10;  Q 290.24 348.37 287.18 351.69&#10;  Q 281.99 357.33 281.93 357.39&#10;  Q 276.23 363.86 270.22 370.64&#10;  C 268.37 372.73 266.64 373.60 263.88 373.20&#10;  Q 260.20 372.66 256.83 371.85&#10;  A 0.78 0.78 0.0 0 0 255.94 372.92&#10;  Q 256.81 374.87 258.25 376.57&#10;  Q 259.38 377.88 261.62 378.63&#10;  Q 266.97 380.43 271.50 377.23&#10;  C 276.97 373.37 280.56 369.10 284.73 364.26&#10;  Q 286.45 362.27 287.52 360.35&#10;  C 289.01 357.68 291.90 351.49 295.22 350.82&#10;  Z&#10;  M 269.77 428.19&#10;  L 269.77 395.89&#10;  A 3.28 3.28 0.0 0 0 266.49 392.61&#10;  L 12.66 392.61&#10;  A 2.41 1.74 -0.0 0 0 10.25 394.35&#10;  L 10.25 429.73&#10;  A 2.41 1.74 0.0 0 0 12.66 431.47&#10;  L 266.49 431.47&#10;  A 3.28 3.28 0.0 0 0 269.77 428.19&#10;  Z" data-c-fill="000000"/>
<ellipse fill="#696cff" cx="0.00" cy="0.00" transform="translate(316.57,206.37) rotate(75.8)" rx="2.98" ry="0.46" data-c-fill="000000"/>
<path fill="#696cff" d="&#10;  M 317.89 211.72&#10;  C 318.25 212.71 318.74 214.04 318.08 214.99&#10;  Q 317.52 215.81 317.55 214.82&#10;  L 317.66 211.76&#10;  Q 317.68 211.12 317.89 211.72&#10;  Z" data-c-fill="000000"/>
<rect fill="#696cff" x="362.47" y="258.95" width="0.92" height="7.48" rx="0.39" data-c-fill="000000"/>
</svg>